#N canvas 912 344 446 412 10;
#X obj 118 113 metro 250;
#X obj 117 43 tgl 15 0 empty empty empty 17 7 0 10 -262144 -1 -1 1
1;
#X obj 128 167 random 1000;
#X obj 205 19 hsl 128 15 0 127 0 0 empty empty empty -2 -8 0 10 -262144
-1 -1 0 1;
#X floatatom 196 64 5 0 0 0 - - -;
#X floatatom 134 245 5 0 0 0 - - -;
#X obj 137 302 osc~;
#X obj 140 341 dac~;
#X floatatom 203 123 5 0 0 0 - - -;
#X obj 135 211 + 20;
#X msg 323 165 \; pd dsp \$1;
#X connect 0 0 2 0;
#X connect 1 0 0 0;
#X connect 2 0 9 0;
#X connect 3 0 4 0;
#X connect 4 0 0 1;
#X connect 5 0 6 0;
#X connect 6 0 7 0;
#X connect 6 0 7 1;
#X connect 8 0 2 1;
#X connect 9 0 5 0;
