#N canvas 213 111 697 668 10;
#X obj 305 209 r~ VU;
#X obj 301 253 env~;
#X obj 298 297 - 100;
#X obj 289 328 vu 15 120 empty empty -1 -8 0 10 -66577 -1 1 0;
#X msg 27 241 \; pd dsp \$1;
#X obj 23 209 tgl 15 0 empty empty empty 17 7 0 10 -262144 -1 -1 1
1;
#X obj 112 328 osc~;
#X obj 266 304 vsl 15 128 0 10 0 0 empty empty empty 0 -9 0 10 -262144
-1 -1 3100 1;
#X obj 201 347 \$1 50;
#X obj 206 372 line~;
#X obj 117 409 *~;
#X obj 51 425 s~ VU;
#X obj 139 469 dac~ 1 2;
#X obj 107 293 +~;
#X floatatom 107 256 5 0 0 0 - - -;
#X text 104 234 portrice;
#X obj 162 279 *~;
#X floatatom 159 209 5 0 0 0 - - -;
#X obj 164 252 osc~;
#X text 268 163 volume;
#X floatatom 196 283 5 0 0 0 - - -;
#X text 196 254 mod index;
#X obj 88 28 r freq;
#X obj 368 190 tgl 15 0 empty empty empty 17 7 0 10 -262144 -1 -1 1
1;
#X obj 367 229 metro 125;
#X obj 369 361 s ndx;
#X obj 528 273 randomF 0.2;
#X obj 533 311 s amp;
#X obj 198 231 r ndx;
#X obj 435 284 random 200;
#X obj 466 307 + 200;
#X obj 465 352 s freq;
#X obj 168 42 t l l;
#X obj 227 44 list length;
#X obj 246 72 t b i;
#X obj 262 113 random;
#X obj 160 113 list split;
#X obj 172 -68 tgl 15 0 empty empty empty 17 7 0 10 -262144 -1 -1 1
1;
#X obj 171 -29 metro 125;
#X obj 170 14 list 220 280 360 500 440 880;
#X text 119 182 freq modulante;
#X obj 166 144 list split 1;
#X obj 371 314 random 200;
#X connect 0 0 1 0;
#X connect 1 0 2 0;
#X connect 2 0 3 1;
#X connect 5 0 4 0;
#X connect 6 0 10 0;
#X connect 7 0 8 0;
#X connect 8 0 9 0;
#X connect 9 0 10 1;
#X connect 10 0 12 0;
#X connect 10 0 12 1;
#X connect 10 0 11 0;
#X connect 13 0 6 0;
#X connect 14 0 13 0;
#X connect 16 0 13 1;
#X connect 17 0 18 0;
#X connect 18 0 16 0;
#X connect 20 0 16 1;
#X connect 23 0 24 0;
#X connect 24 0 29 0;
#X connect 24 0 26 0;
#X connect 24 0 42 0;
#X connect 26 0 27 0;
#X connect 28 0 20 0;
#X connect 29 0 30 0;
#X connect 30 0 31 0;
#X connect 32 0 36 0;
#X connect 32 1 33 0;
#X connect 33 0 34 0;
#X connect 34 0 35 0;
#X connect 34 1 35 1;
#X connect 35 0 36 1;
#X connect 36 1 41 0;
#X connect 37 0 38 0;
#X connect 38 0 39 0;
#X connect 39 0 32 0;
#X connect 41 0 17 0;
#X connect 42 0 25 0;
