#N canvas 682 45 505 710 10;
#X obj 286 137 gemwin;
#X msg 290 48 create;
#X msg 360 54 destroy;
#X obj 226 69 tgl 15 0 empty empty empty 17 7 0 10 -262144 -1 -1 1
1;
#X obj 50 38 tgl 15 0 empty empty empty 17 7 0 10 -262144 -1 -1 0 1
;
#X obj 52 94 gemhead;
#X obj 73 167 square;
#X floatatom 119 125 5 0 0 0 - - -;
#X obj 194 183 tgl 15 0 empty empty empty 17 7 0 10 -262144 -1 -1 0
1;
#X obj 196 239 gemhead;
#X floatatom 229 261 5 0 0 0 - - -;
#X obj 217 347 triangle;
#X obj 63 235 tgl 15 0 empty empty empty 17 7 0 10 -262144 -1 -1 1
1;
#X obj 65 291 gemhead;
#X floatatom 132 322 5 0 0 0 - - -;
#X obj 86 364 circle;
#X msg 280 224 draw line;
#X msg 304 260 draw point;
#X msg 299 302 draw fill;
#X msg 128 72 draw line;
#X msg 97 233 draw line;
#X obj 77 445 tgl 15 0 empty empty empty 17 7 0 10 -262144 -1 -1 1
1;
#X obj 79 501 gemhead;
#X obj 100 644 square;
#X floatatom 345 617 5 0 0 0 - - -;
#X msg 297 519 draw line;
#X obj 67 550 translateXYZ;
#X obj 32 602 color;
#X msg 330 546 draw fill;
#X floatatom 136 504 5 0 0 0 - - -;
#X floatatom 146 514 5 0 0 0 - - -;
#X obj 214 430 metro 100;
#X obj 208 397 tgl 15 0 empty empty empty 17 7 0 10 -262144 -1 -1 1
1;
#X floatatom 183 502 5 0 0 0 - - -;
#X floatatom 222 516 5 0 0 0 - - -;
#X floatatom 232 526 5 0 0 0 - - -;
#X floatatom 156 524 5 0 0 0 - - -;
#X msg 113 598 \$1 \$2 \$3;
#X obj 140 574 pack \$1 \$2 \$3;
#X obj 275 418 metro 100;
#X obj 269 385 tgl 15 0 empty empty empty 17 7 0 10 -262144 -1 -1 1
1;
#X obj 369 411 metro 100;
#X obj 363 378 tgl 15 0 empty empty empty 17 7 0 10 -262144 -1 -1 1
1;
#X obj 212 467 random 5;
#X obj 273 455 random 5;
#X obj 367 448 random 5;
#X connect 1 0 0 0;
#X connect 2 0 0 0;
#X connect 3 0 0 0;
#X connect 4 0 5 0;
#X connect 5 0 6 0;
#X connect 7 0 6 1;
#X connect 8 0 9 0;
#X connect 9 0 11 0;
#X connect 10 0 11 1;
#X connect 12 0 13 0;
#X connect 13 0 15 0;
#X connect 14 0 15 1;
#X connect 16 0 11 0;
#X connect 17 0 11 0;
#X connect 18 0 11 0;
#X connect 19 0 6 0;
#X connect 20 0 15 0;
#X connect 21 0 22 0;
#X connect 22 0 26 0;
#X connect 24 0 23 1;
#X connect 25 0 23 0;
#X connect 26 0 27 0;
#X connect 27 0 23 0;
#X connect 28 0 23 0;
#X connect 29 0 26 1;
#X connect 30 0 26 2;
#X connect 31 0 43 0;
#X connect 32 0 31 0;
#X connect 33 0 38 0;
#X connect 34 0 38 1;
#X connect 35 0 38 2;
#X connect 36 0 26 3;
#X connect 37 0 27 1;
#X connect 38 0 37 0;
#X connect 39 0 44 0;
#X connect 40 0 39 0;
#X connect 41 0 45 0;
#X connect 42 0 41 0;
#X connect 43 0 33 0;
#X connect 44 0 34 0;
#X connect 45 0 35 0;
