#N canvas 301 138 1295 712 10;
#X obj 303 441 osc~;
#X obj 300 493 dac~;
#X msg 328 25 \; pd dsp \$1;
#X obj 110 48 key;
#X floatatom 46 88 5 0 0 0 - - -;
#X obj 76 218 mtof;
#X floatatom 72 254 5 0 0 0 - - -;
#X msg 76 156 60;
#X msg 108 153 61;
#X msg 139 154 62;
#X msg 167 157 63;
#X msg 199 157 64;
#X msg 232 157 65;
#X msg 265 153 66;
#X msg 295 158 67;
#X msg 320 160 68;
#X msg 351 170 69;
#X msg 375 174 70;
#X msg 403 166 71;
#X msg 428 170 72;
#X msg 458 174 72;
#X obj 339 440 osc~;
#X obj 336 492 dac~;
#X obj 112 217 mtof;
#X floatatom 108 253 5 0 0 0 - - -;
#X obj 372 439 osc~;
#X obj 369 491 dac~;
#X obj 145 216 mtof;
#X floatatom 141 252 5 0 0 0 - - -;
#X obj 405 441 osc~;
#X obj 402 493 dac~;
#X obj 178 218 mtof;
#X floatatom 174 254 5 0 0 0 - - -;
#X obj 443 441 osc~;
#X obj 440 493 dac~;
#X obj 216 218 mtof;
#X floatatom 212 254 5 0 0 0 - - -;
#X obj 474 443 osc~;
#X obj 471 495 dac~;
#X obj 250 219 mtof;
#X floatatom 246 255 5 0 0 0 - - -;
#X obj 511 442 osc~;
#X obj 508 494 dac~;
#X obj 284 219 mtof;
#X floatatom 280 255 5 0 0 0 - - -;
#X obj 543 444 osc~;
#X obj 540 496 dac~;
#X obj 317 220 mtof;
#X floatatom 317 258 5 0 0 0 - - -;
#X obj 578 443 osc~;
#X obj 575 495 dac~;
#X obj 351 220 mtof;
#X floatatom 347 256 5 0 0 0 - - -;
#X obj 614 445 osc~;
#X obj 611 497 dac~;
#X obj 387 222 mtof;
#X floatatom 383 258 5 0 0 0 - - -;
#X obj 662 446 osc~;
#X obj 659 498 dac~;
#X obj 435 223 mtof;
#X floatatom 431 259 5 0 0 0 - - -;
#X obj 712 446 osc~;
#X obj 709 498 dac~;
#X obj 485 223 mtof;
#X floatatom 481 259 5 0 0 0 - - -;
#X obj 744 440 osc~;
#X obj 741 492 dac~;
#X obj 517 217 mtof;
#X floatatom 513 253 5 0 0 0 - - -;
#X obj 795 444 osc~;
#X obj 792 496 dac~;
#X obj 568 221 mtof;
#X floatatom 564 257 5 0 0 0 - - -;
#X obj 551 16 keyup;
#X floatatom 483 49 5 0 0 0 - - -;
#X obj 112 95 sel 119 115 120 100 99 118 103 98 104 110 106 44 59;
#X obj 544 62 sel 119 115 120 100 99 118 103 98 104 110 106 44 59;
#X msg 553 104 0;
#X msg 580 105 0;
#X msg 612 112 0;
#X msg 647 109 0;
#X msg 680 106 0;
#X msg 725 104 0;
#X msg 755 106 0;
#X msg 779 113 0;
#X msg 810 111 0;
#X msg 842 111 0;
#X msg 876 114 0;
#X msg 904 118 0;
#X msg 938 115 0;
#X msg 972 117 0;
#X connect 0 0 1 0;
#X connect 0 0 1 1;
#X connect 3 0 4 0;
#X connect 3 0 75 0;
#X connect 5 0 0 0;
#X connect 5 0 6 0;
#X connect 7 0 5 0;
#X connect 8 0 23 0;
#X connect 9 0 27 0;
#X connect 10 0 31 0;
#X connect 11 0 35 0;
#X connect 12 0 39 0;
#X connect 13 0 43 0;
#X connect 14 0 47 0;
#X connect 15 0 51 0;
#X connect 16 0 55 0;
#X connect 17 0 59 0;
#X connect 18 0 63 0;
#X connect 19 0 67 0;
#X connect 20 0 71 0;
#X connect 21 0 22 0;
#X connect 21 0 22 1;
#X connect 23 0 21 0;
#X connect 23 0 24 0;
#X connect 25 0 26 0;
#X connect 25 0 26 1;
#X connect 27 0 25 0;
#X connect 27 0 28 0;
#X connect 29 0 30 0;
#X connect 29 0 30 1;
#X connect 31 0 29 0;
#X connect 31 0 32 0;
#X connect 33 0 34 0;
#X connect 33 0 34 1;
#X connect 35 0 33 0;
#X connect 35 0 36 0;
#X connect 37 0 38 0;
#X connect 37 0 38 1;
#X connect 39 0 37 0;
#X connect 39 0 40 0;
#X connect 41 0 42 0;
#X connect 41 0 42 1;
#X connect 43 0 41 0;
#X connect 43 0 44 0;
#X connect 45 0 46 0;
#X connect 45 0 46 1;
#X connect 47 0 45 0;
#X connect 47 0 48 0;
#X connect 49 0 50 0;
#X connect 49 0 50 1;
#X connect 51 0 49 0;
#X connect 51 0 52 0;
#X connect 53 0 54 0;
#X connect 53 0 54 1;
#X connect 55 0 53 0;
#X connect 55 0 56 0;
#X connect 57 0 58 0;
#X connect 57 0 58 1;
#X connect 59 0 57 0;
#X connect 59 0 60 0;
#X connect 61 0 62 0;
#X connect 61 0 62 1;
#X connect 63 0 61 0;
#X connect 63 0 64 0;
#X connect 65 0 66 0;
#X connect 65 0 66 1;
#X connect 67 0 65 0;
#X connect 67 0 68 0;
#X connect 69 0 70 0;
#X connect 69 0 70 1;
#X connect 71 0 69 0;
#X connect 71 0 72 0;
#X connect 73 0 76 0;
#X connect 73 0 74 0;
#X connect 75 0 7 0;
#X connect 75 1 8 0;
#X connect 75 2 9 0;
#X connect 75 3 10 0;
#X connect 75 4 11 0;
#X connect 75 5 12 0;
#X connect 75 6 13 0;
#X connect 75 7 14 0;
#X connect 75 8 15 0;
#X connect 75 9 16 0;
#X connect 75 10 17 0;
#X connect 75 11 18 0;
#X connect 75 12 19 0;
#X connect 75 13 20 0;
#X connect 76 0 77 0;
#X connect 76 1 78 0;
#X connect 76 2 79 0;
#X connect 76 3 80 0;
#X connect 76 4 81 0;
#X connect 76 5 82 0;
#X connect 76 6 83 0;
#X connect 76 7 84 0;
#X connect 76 8 85 0;
#X connect 76 9 86 0;
#X connect 76 10 87 0;
#X connect 76 11 88 0;
#X connect 76 12 89 0;
#X connect 76 13 90 0;
#X connect 77 0 5 0;
#X connect 78 0 23 0;
#X connect 79 0 27 0;
#X connect 80 0 31 0;
#X connect 81 0 35 0;
#X connect 82 0 39 0;
#X connect 83 0 43 0;
#X connect 84 0 47 0;
#X connect 85 0 51 0;
#X connect 86 0 55 0;
#X connect 87 0 59 0;
#X connect 88 0 63 0;
#X connect 89 0 67 0;
#X connect 90 0 71 0;
