#N canvas 134 72 462 527 10;
#X obj 139 375 dac~;
#X msg 34 166 \; pd dsp \$1;
#X obj 386 92 vsl 15 128 0 2 0 0 empty empty empty 0 -9 0 10 -262144
-1 -1 3000 1;
#X obj 222 182 \$1 50;
#X obj 227 207 line~;
#X obj 172 260 *~;
#X obj 115 209 adc~;
#X floatatom 19 308 5 0 0 0 - - -;
#X obj 39 261 env~;
#X obj 177 312 freeverb~;
#X msg 282 275 wet \$1;
#X obj 278 247 hsl 128 15 0 1 0 0 empty empty empty -2 -8 0 10 -262144
-1 -1 4200 1;
#X obj 288 306 hsl 128 15 0 1 0 0 empty empty empty -2 -8 0 10 -262144
-1 -1 5000 1;
#X obj 291 360 hsl 128 15 0 1 0 0 empty empty empty -2 -8 0 10 -262144
-1 -1 0 1;
#X msg 292 334 dry \$1;
#X msg 295 388 roomsize \$1;
#X connect 2 0 3 0;
#X connect 3 0 4 0;
#X connect 4 0 5 1;
#X connect 5 0 9 0;
#X connect 5 0 0 0;
#X connect 6 0 8 0;
#X connect 6 0 5 0;
#X connect 8 0 7 0;
#X connect 9 0 0 0;
#X connect 10 0 9 0;
#X connect 11 0 10 0;
#X connect 12 0 14 0;
#X connect 13 0 15 0;
#X connect 14 0 9 0;
#X connect 15 0 9 0;
