#N canvas 797 171 446 412 10;
#X obj 268 153 dac~;
#X msg 323 165 \; pd dsp \$1;
#X obj 282 111 readsf~;
#X msg 299 52 open bossa.wav \, 1;
#X msg 221 61 0;
#N canvas 0 22 450 278 (subpatch) 0;
#X array soundData 242550 float 2;
#X coords 0 1 242550 -1 200 140 1;
#X restore 223 204 graph;
#X msg 24 31 read -resize bossa.wav soundData;
#X obj 44 80 soundfiler;
#X obj 51 173 expr 44100/$f1;
#X obj 53 215 phasor~;
#X obj 53 255 *~;
#X obj 36 285 tabread4~ soundData;
#X obj 53 340 dac~;
#X obj 156 169 hsl 100 15 -0.5 0.5 0 0 empty empty empty -2 -8 0 10
-262144 -1 -1 5500 1;
#X floatatom 6 148 5 0 0 0 - - -;
#X floatatom 129 221 5 0 0 0 - - -;
#X floatatom 49 120 10 0 0 0 - - -;
#X connect 2 0 0 0;
#X connect 2 0 0 1;
#X connect 3 0 2 0;
#X connect 4 0 2 0;
#X connect 6 0 7 0;
#X connect 7 0 16 0;
#X connect 8 0 9 0;
#X connect 9 0 10 0;
#X connect 10 0 11 0;
#X connect 11 0 12 0;
#X connect 11 0 12 1;
#X connect 13 0 9 0;
#X connect 13 0 15 0;
#X connect 14 0 8 0;
#X connect 16 0 8 0;
#X connect 16 0 10 1;
